PathFileType	4	(X/Y/Z)	OpenSim_Sub05_CSBaseline_Gyro.trc
DataRate	CameraRate	NumFrames	NumMarkers	Units	OrigDataRate	OrigDataStartFrame	OrigNumFrames
100	100	30	8	m	100	3959	10557
Frame#	Time	torso_imu_offset_imu	pelvis_imu_offset_imu	tibia_r_imu_offset_imu	femur_r_imu_offset_imu	tibia_l_imu_offset_imu	femur_l_imu_offset_imu	toes_r_imu_offset_imu	toes_l_imu_offset_imu
				X1	Y1	Z1	X2	Y2	Z2	X3	Y3	Z3	X4	Y4	Z4	X5	Y5	Z5	X6	Y6	Z6	X7	Y7	Z7	X8		Y8	Z8	

3959	39.58000000	-0.66944672	0.02072058	-0.45960525	-0.35120461	0.07289169	-0.44322038	0.54849725	-0.07166476	-2.71234231	-0.32841654	1.45039063	2.23261348	0.40192468	-0.42871063	0.76517508	-0.81694799	-0.28882525	0.56168107	-0.02553517	-5.72439128	-1.34795476	-0.04774861	-0.32101138	-0.03673639
3960	39.59000000	-0.73938253	-0.00649410	-0.50883594	-0.35012052	0.16191505	-0.44178523	1.32653157	-0.18198198	-2.72398781	-0.22838709	1.46448238	2.31289463	-0.06437050	-0.47768417	0.74420256	-0.54902187	-0.42788371	0.72574852	-0.01476325	-5.24513542	-1.43604289	-0.16797113	-0.23801512	-0.02076980
3961	39.60000000	-0.77356741	-0.03172416	-0.56796808	-0.28737743	0.24125995	-0.43935707	1.65222931	-0.22836624	-2.74986410	-0.05999201	1.57592215	2.31807413	-0.37002670	-0.49031708	0.73923314	-0.08723365	-0.47943884	0.75889453	0.43203264	-4.46159096	-1.56842825	-0.21295273	-0.19303471	0.02663116
3962	39.61000000	-0.75709856	-0.05176164	-0.60237264	-0.19713020	0.31655211	-0.41932856	1.81069955	-0.31441645	-2.70114242	-0.06376745	1.63122381	2.24387004	-0.27107183	-0.45163106	0.68304922	0.21701396	-0.49103896	0.72860822	1.04303985	-3.95357228	-1.61313130	-0.24620969	-0.18794783	0.04890770
3963	39.62000000	-0.71581933	-0.06903324	-0.59347056	-0.10189604	0.36131647	-0.38344396	1.53698165	-0.39155796	-2.49754820	-0.15700104	1.44676772	2.12725158	0.02619136	-0.37931607	0.60322073	0.24302322	-0.46788171	0.67610726	0.52001202	-3.30169105	-1.47104638	-0.23006072	-0.18438734	0.04250866
3964	39.63000000	-0.67068998	-0.07861608	-0.55742752	-0.00798303	0.35297944	-0.34739897	0.69300533	-0.29125349	-2.12947457	-0.21086279	1.17094517	1.99237074	0.25682825	-0.32390656	0.60772139	0.11885176	-0.40228123	0.63959570	-0.03974730	-1.84989189	-0.87797469	-0.16203981	-0.17931387	0.02700031
3965	39.64000000	-0.61977292	-0.08528680	-0.52751569	0.08382743	0.29759061	-0.27160380	0.04196518	-0.10928696	-1.64719161	-0.09349772	0.94488260	1.82651630	0.29416625	-0.27845039	0.65111720	-0.01212538	-0.30144118	0.58573982	0.00169580	-0.65632516	-0.43924841	-0.09336599	-0.16233040	0.00519368
3966	39.65000000	-0.57279448	-0.10382678	-0.52946251	0.15997527	0.23080657	-0.18129540	-0.60349351	0.02846465	-0.94527519	0.06359906	0.85465957	1.66885417	0.24713844	-0.24922092	0.64417735	-0.12563218	-0.20041263	0.51577713	-0.18032201	-0.24193876	-0.30338257	-0.03549242	-0.15098349	-0.01175345
3967	39.66000000	-0.55248199	-0.13130405	-0.53334543	0.19718265	0.17321923	-0.02487154	-1.97482798	0.13285154	-0.06191343	0.07057578	0.76584219	1.60523458	0.21673256	-0.23127574	0.63140195	-0.15601672	-0.16446552	0.46935406	0.38518758	0.90213448	-0.11894445	-0.01882060	-0.16559866	-0.01759319
3968	39.67000000	-0.52925310	-0.16194556	-0.52359570	0.21764904	0.12107706	0.12524131	-2.49206187	0.28159405	0.57361398	0.10714809	0.58226883	1.57008546	0.21807579	-0.19930837	0.66640997	-0.01127311	-0.18903536	0.44773158	0.49247935	1.41079375	-0.03121328	-0.03751251	-0.16461905	-0.02165686
3969	39.68000000	-0.51038721	-0.18505903	-0.47777610	0.21590082	0.06806942	0.27177105	-1.65127450	0.34066065	0.89467625	0.35850798	0.46606156	1.49164803	0.15983286	-0.16757702	0.69618034	0.19665440	-0.23067992	0.44690742	0.20670331	1.58921329	0.05111035	-0.04252253	-0.15946227	-0.00694153
3970	39.69000000	-0.50400620	-0.19295278	-0.40215307	0.21576232	0.02616682	0.34511364	-0.93551608	0.20723423	1.19543309	0.66955781	0.44382333	1.38892540	0.11104942	-0.14513751	0.69302841	0.31447647	-0.27054965	0.44180952	0.01896356	1.85759290	0.16168927	-0.09273335	-0.17122403	0.01799883
3971	39.70000000	-0.54322936	-0.18535434	-0.33561844	0.19100928	-0.01516368	0.38110961	-0.57395926	0.05583511	1.57860161	0.83379447	0.41967036	1.28536858	0.19356731	-0.10099665	0.62608687	0.32826751	-0.28570725	0.47283577	-0.08598832	2.02927760	0.27572410	-0.16161647	-0.19786917	0.04718929
3972	39.71000000	-0.57357557	-0.18123238	-0.28095291	0.15686815	-0.02550450	0.38347088	-0.07936625	0.01728334	1.96991938	0.88801041	0.36237147	1.16973579	0.33310939	-0.05857469	0.58833057	0.27357735	-0.26411007	0.51440188	-0.04400850	2.30238216	0.43758635	-0.21037892	-0.20805804	0.07185136
3973	39.72000000	-0.56713343	-0.18297017	-0.23969134	0.13755646	-0.00455735	0.34817008	0.29256022	0.03904735	2.33067980	0.92546757	0.27548951	1.02036079	0.34731503	-0.05789781	0.58569844	0.15802227	-0.25639392	0.53982943	0.04580662	2.61989562	0.62912337	-0.21574733	-0.20532397	0.07938877
3974	39.73000000	-0.51235477	-0.18048986	-0.24607250	0.13346543	0.01800263	0.30287852	0.39099881	0.07261933	2.62659675	0.97539608	0.17483702	0.85130796	0.33046830	-0.05588497	0.57258275	0.05661868	-0.23428291	0.52867611	0.11066602	2.93292154	0.82899482	-0.20010600	-0.20159450	0.08223451
3975	39.74000000	-0.50517947	-0.17208422	-0.25302814	0.14964437	0.06193721	0.23521202	0.41132786	0.14447634	2.90721144	1.02616392	0.07087156	0.69846163	0.31045936	-0.03990592	0.54686527	-0.03289625	-0.23830167	0.52039596	0.15179978	3.22151653	1.01750782	-0.17284866	-0.19970772	0.08488634
3976	39.75000000	-0.49695176	-0.17383406	-0.22458913	0.15146959	0.11112863	0.21860212	0.35141997	0.25234420	3.19900660	1.06374067	-0.02902182	0.58493990	0.26540734	-0.02470922	0.54504804	-0.06478330	-0.21417318	0.54676406	0.17939303	3.48645721	1.18152257	-0.13027258	-0.19624986	0.07618803
3977	39.76000000	-0.48787945	-0.19062603	-0.20790940	0.16933590	0.16230015	0.20675735	0.24508581	0.35980467	3.47848629	1.06617013	-0.12357681	0.49026272	0.17227994	-0.02619042	0.57689793	-0.06590039	-0.17713770	0.56599510	0.18610620	3.70995213	1.31646165	-0.09756619	-0.20377159	0.07227992
3978	39.77000000	-0.49381354	-0.17315913	-0.19416563	0.18967866	0.20414990	0.19874982	0.15824448	0.46394278	3.75096597	1.04540614	-0.22824532	0.39719681	0.13417438	-0.02629660	0.58043154	-0.04585989	-0.16187761	0.59461595	0.22671218	3.91167506	1.40497266	-0.07661829	-0.19337681	0.07040729
3979	39.78000000	-0.51295275	-0.16845472	-0.19376494	0.22330382	0.22486429	0.18485944	0.12704477	0.51689272	3.99176107	1.00484826	-0.33637785	0.28238602	0.20066962	-0.00523164	0.55790705	-0.00825520	-0.13748483	0.62873487	0.29722264	4.09340113	1.45672142	-0.06199350	-0.19971652	0.07924424
3980	39.79000000	-0.50498588	-0.16184934	-0.18191279	0.25522048	0.24067755	0.17300650	0.26251069	0.51004434	4.19141811	0.93340937	-0.44639270	0.14950704	0.24164251	0.00581041	0.55089425	-0.01181691	-0.09985602	0.66589124	0.33027318	4.23066101	1.47089692	-0.03382256	-0.18496421	0.07304958
3981	39.80000000	-0.47074011	-0.14536931	-0.18582253	0.28564388	0.23637703	0.14643686	0.55664610	0.49989578	4.34281808	0.83180382	-0.54527572	-0.00745023	0.22625413	0.01552953	0.56994288	-0.06529722	-0.10927955	0.66940873	0.29712896	4.29507946	1.46108216	-0.00053429	-0.17421217	0.08090452
3982	39.81000000	-0.43471729	-0.13498167	-0.21105921	0.31356604	0.21310405	0.10170113	0.87859261	0.48343968	4.54344154	0.70899522	-0.63129422	-0.16587361	0.16099768	0.02252873	0.58965597	-0.08575236	-0.09796514	0.67727989	0.22289567	4.28987804	1.42752848	0.03761607	-0.14953530	0.07883626
3983	39.82000000	-0.38195366	-0.12484484	-0.23614296	0.33566083	0.17826535	0.06302789	1.19375783	0.51027143	4.75626804	0.56725005	-0.73236502	-0.33174520	0.11371467	0.02294317	0.58449588	-0.12146357	-0.07062085	0.68783775	0.11501124	4.19790367	1.38222614	0.03796200	-0.12991818	0.08237763
3984	39.83000000	-0.33628874	-0.11259319	-0.25382826	0.35333389	0.13579937	0.03644507	1.22408644	0.62874382	4.76096929	0.40535747	-0.84247439	-0.51222571	0.12409764	0.03044999	0.55797645	-0.18029640	-0.07010691	0.70276071	-0.00741095	4.08516214	1.37787847	0.04266004	-0.10783618	0.08456850
3985	39.84000000	-0.29671844	-0.09455115	-0.24942781	0.37062154	0.08050812	0.01792681	0.78820378	0.75598258	4.62665651	0.22807442	-0.93939279	-0.70781801	0.11999484	0.04285193	0.57562774	-0.16487524	-0.05801857	0.72335017	-0.10735407	4.08475270	1.45583573	0.07440769	-0.08147717	0.09090346
3986	39.85000000	-0.26374451	-0.06899809	-0.22893407	0.39262904	0.02252833	0.00313554	0.26286901	0.67877068	4.57905546	0.10708093	-1.01111718	-0.92240373	0.11015217	0.04651726	0.59189073	-0.17438802	-0.09458637	0.71415696	-0.09336369	4.20124644	1.56343697	0.10646885	-0.05441831	0.09328195
3987	39.86000000	-0.24219511	-0.04890036	-0.19427854	0.40352806	-0.01594023	-0.01028252	-0.14141650	0.44215010	4.54518304	0.11579267	-1.03457693	-1.13723384	0.16853071	0.03317302	0.60480474	-0.17127798	-0.15549158	0.70042211	0.00725336	4.19677178	1.57263477	0.13510656	-0.04452661	0.10550043
3988	39.87000000	-0.23323403	-0.02421045	-0.16143335	0.39840828	-0.04443361	-0.02395939	-0.18932799	0.21315956	4.36312233	0.28515499	-0.98223378	-1.35816076	0.29457968	0.03548389	0.60825902	-0.13016999	-0.16660079	0.69004503	0.14049620	3.97031375	1.45535468	0.15281363	-0.05182136	0.12338530
